<svg width="102" height="819" viewBox="0 0 102 819" fill="none" xmlns="http://www.w3.org/2000/svg">
<g opacity="0.5">
<path fill-rule="evenodd" clip-rule="evenodd" d="M2.40332 5.25344C3.23196 5.25344 3.90332 4.71765 3.90332 4.05517C3.90332 3.39269 3.23196 2.85596 2.40332 2.85596C1.57586 2.85596 0.90332 3.39269 0.90332 4.05517C0.90332 4.71765 1.57586 5.25344 2.40332 5.25344Z" fill="white"/>
<path fill-rule="evenodd" clip-rule="evenodd" d="M23.4033 5.25344C24.232 5.25344 24.9033 4.71765 24.9033 4.05517C24.9033 3.39269 24.232 2.85596 23.4033 2.85596C22.5747 2.85596 21.9033 3.39269 21.9033 4.05517C21.9033 4.71765 22.5747 5.25344 23.4033 5.25344Z" fill="white"/>
<path fill-rule="evenodd" clip-rule="evenodd" d="M45.4033 5.25344C46.232 5.25344 46.9033 4.71765 46.9033 4.05517C46.9033 3.39269 46.232 2.85596 45.4033 2.85596C44.5747 2.85596 43.9033 3.39269 43.9033 4.05517C43.9033 4.71765 44.5747 5.25344 45.4033 5.25344Z" fill="white"/>
<path fill-rule="evenodd" clip-rule="evenodd" d="M67.4027 5.25344C68.2317 5.25344 68.9033 4.71765 68.9033 4.05517C68.9033 3.39269 68.2317 2.85596 67.4027 2.85596C66.5749 2.85596 65.9033 3.39269 65.9033 4.05517C65.9033 4.71765 66.5749 5.25344 67.4027 5.25344Z" fill="white"/>
<path fill-rule="evenodd" clip-rule="evenodd" d="M88.4033 5.25344C89.2308 5.25344 89.9033 4.71765 89.9033 4.05517C89.9033 3.39269 89.2308 2.85596 88.4033 2.85596C87.5747 2.85596 86.9033 3.39269 86.9033 4.05517C86.9033 4.71765 87.5747 5.25344 88.4033 5.25344Z" fill="white"/>
<path fill-rule="evenodd" clip-rule="evenodd" d="M13.4027 23.6343C14.2317 23.6343 14.9033 23.0985 14.9033 22.436C14.9033 21.7736 14.2317 21.2368 13.4027 21.2368C12.5749 21.2368 11.9033 21.7736 11.9033 22.436C11.9033 23.0985 12.5749 23.6343 13.4027 23.6343Z" fill="white"/>
<path fill-rule="evenodd" clip-rule="evenodd" d="M35.4033 23.6343C36.2308 23.6343 36.9033 23.0985 36.9033 22.436C36.9033 21.7736 36.2308 21.2368 35.4033 21.2368C34.5747 21.2368 33.9033 21.7736 33.9033 22.436C33.9033 23.0985 34.5747 23.6343 35.4033 23.6343Z" fill="white"/>
<path fill-rule="evenodd" clip-rule="evenodd" d="M56.4033 23.6343C57.232 23.6343 57.9033 23.0985 57.9033 22.436C57.9033 21.7736 57.232 21.2368 56.4033 21.2368C55.5759 21.2368 54.9033 21.7736 54.9033 22.436C54.9033 23.0985 55.5759 23.6343 56.4033 23.6343Z" fill="white"/>
<path fill-rule="evenodd" clip-rule="evenodd" d="M79.4033 23.6343C80.232 23.6343 80.9033 23.0985 80.9033 22.436C80.9033 21.7736 80.232 21.2368 79.4033 21.2368C78.5747 21.2368 77.9033 21.7736 77.9033 22.436C77.9033 23.0985 78.5747 23.6343 79.4033 23.6343Z" fill="white"/>
<path fill-rule="evenodd" clip-rule="evenodd" d="M100.403 23.6343C101.232 23.6343 101.903 23.0985 101.903 22.436C101.903 21.7736 101.232 21.2368 100.403 21.2368C99.5747 21.2368 98.9033 21.7736 98.9033 22.436C98.9033 23.0985 99.5747 23.6343 100.403 23.6343Z" fill="white"/>
<path fill-rule="evenodd" clip-rule="evenodd" d="M2.40332 40.4165C3.23196 40.4165 3.90332 39.8791 3.90332 39.2178C3.90332 38.5556 3.23196 38.019 2.40332 38.019C1.57586 38.019 0.90332 38.5556 0.90332 39.2178C0.90332 39.8791 1.57586 40.4165 2.40332 40.4165Z" fill="white"/>
<path fill-rule="evenodd" clip-rule="evenodd" d="M23.4033 40.4165C24.232 40.4165 24.9033 39.8791 24.9033 39.2178C24.9033 38.5556 24.232 38.019 23.4033 38.019C22.5747 38.019 21.9033 38.5556 21.9033 39.2178C21.9033 39.8791 22.5747 40.4165 23.4033 40.4165Z" fill="white"/>
<path fill-rule="evenodd" clip-rule="evenodd" d="M45.4033 40.4165C46.232 40.4165 46.9033 39.8791 46.9033 39.2178C46.9033 38.5556 46.232 38.019 45.4033 38.019C44.5747 38.019 43.9033 38.5556 43.9033 39.2178C43.9033 39.8791 44.5747 40.4165 45.4033 40.4165Z" fill="white"/>
<path fill-rule="evenodd" clip-rule="evenodd" d="M67.4027 40.4165C68.2317 40.4165 68.9033 39.8791 68.9033 39.2178C68.9033 38.5556 68.2317 38.019 67.4027 38.019C66.5749 38.019 65.9033 38.5556 65.9033 39.2178C65.9033 39.8791 66.5749 40.4165 67.4027 40.4165Z" fill="white"/>
<path fill-rule="evenodd" clip-rule="evenodd" d="M88.4033 40.4165C89.2308 40.4165 89.9033 39.8791 89.9033 39.2178C89.9033 38.5556 89.2308 38.019 88.4033 38.019C87.5747 38.019 86.9033 38.5556 86.9033 39.2178C86.9033 39.8791 87.5747 40.4165 88.4033 40.4165Z" fill="white"/>
<path fill-rule="evenodd" clip-rule="evenodd" d="M13.4027 57.1988C14.2317 57.1988 14.9033 56.6613 14.9033 56C14.9033 55.3378 14.2317 54.8013 13.4027 54.8013C12.5749 54.8013 11.9033 55.3378 11.9033 56C11.9033 56.6613 12.5749 57.1988 13.4027 57.1988Z" fill="white"/>
<path fill-rule="evenodd" clip-rule="evenodd" d="M35.4033 57.1988C36.2308 57.1988 36.9033 56.6613 36.9033 56C36.9033 55.3378 36.2308 54.8013 35.4033 54.8013C34.5747 54.8013 33.9033 55.3378 33.9033 56C33.9033 56.6613 34.5747 57.1988 35.4033 57.1988Z" fill="white"/>
<path fill-rule="evenodd" clip-rule="evenodd" d="M56.4033 57.1988C57.232 57.1988 57.9033 56.6613 57.9033 56C57.9033 55.3378 57.232 54.8013 56.4033 54.8013C55.5759 54.8013 54.9033 55.3378 54.9033 56C54.9033 56.6613 55.5759 57.1988 56.4033 57.1988Z" fill="white"/>
<path fill-rule="evenodd" clip-rule="evenodd" d="M79.4033 57.1988C80.232 57.1988 80.9033 56.6613 80.9033 56C80.9033 55.3378 80.232 54.8013 79.4033 54.8013C78.5747 54.8013 77.9033 55.3378 77.9033 56C77.9033 56.6613 78.5747 57.1988 79.4033 57.1988Z" fill="white"/>
<path fill-rule="evenodd" clip-rule="evenodd" d="M100.403 57.1988C101.232 57.1988 101.903 56.6613 101.903 56C101.903 55.3378 101.232 54.8013 100.403 54.8013C99.5747 54.8013 98.9033 55.3378 98.9033 56C98.9033 56.6613 99.5747 57.1988 100.403 57.1988Z" fill="white"/>
<path fill-rule="evenodd" clip-rule="evenodd" d="M2.40332 75.5796C3.23196 75.5796 3.90332 75.0422 3.90332 74.3809C3.90332 73.7187 3.23196 73.1821 2.40332 73.1821C1.57586 73.1821 0.90332 73.7187 0.90332 74.3809C0.90332 75.0422 1.57586 75.5796 2.40332 75.5796Z" fill="white"/>
<path fill-rule="evenodd" clip-rule="evenodd" d="M23.4033 75.5796C24.232 75.5796 24.9033 75.0422 24.9033 74.3809C24.9033 73.7187 24.232 73.1821 23.4033 73.1821C22.5747 73.1821 21.9033 73.7187 21.9033 74.3809C21.9033 75.0422 22.5747 75.5796 23.4033 75.5796Z" fill="white"/>
<path fill-rule="evenodd" clip-rule="evenodd" d="M45.4033 75.5796C46.232 75.5796 46.9033 75.0422 46.9033 74.3809C46.9033 73.7187 46.232 73.1821 45.4033 73.1821C44.5747 73.1821 43.9033 73.7187 43.9033 74.3809C43.9033 75.0422 44.5747 75.5796 45.4033 75.5796Z" fill="white"/>
<path fill-rule="evenodd" clip-rule="evenodd" d="M67.4027 75.5796C68.2317 75.5796 68.9033 75.0422 68.9033 74.3809C68.9033 73.7187 68.2317 73.1821 67.4027 73.1821C66.5749 73.1821 65.9033 73.7187 65.9033 74.3809C65.9033 75.0422 66.5749 75.5796 67.4027 75.5796Z" fill="white"/>
<path fill-rule="evenodd" clip-rule="evenodd" d="M88.4033 75.5796C89.2308 75.5796 89.9033 75.0422 89.9033 74.3809C89.9033 73.7187 89.2308 73.1821 88.4033 73.1821C87.5747 73.1821 86.9033 73.7187 86.9033 74.3809C86.9033 75.0422 87.5747 75.5796 88.4033 75.5796Z" fill="white"/>
<path fill-rule="evenodd" clip-rule="evenodd" d="M13.4027 92.3618C14.2317 92.3618 14.9033 91.826 14.9033 91.1636C14.9033 90.5011 14.2317 89.9644 13.4027 89.9644C12.5749 89.9644 11.9033 90.5011 11.9033 91.1636C11.9033 91.826 12.5749 92.3618 13.4027 92.3618Z" fill="white"/>
<path fill-rule="evenodd" clip-rule="evenodd" d="M35.4033 92.3618C36.2308 92.3618 36.9033 91.826 36.9033 91.1636C36.9033 90.5011 36.2308 89.9644 35.4033 89.9644C34.5747 89.9644 33.9033 90.5011 33.9033 91.1636C33.9033 91.826 34.5747 92.3618 35.4033 92.3618Z" fill="white"/>
<path fill-rule="evenodd" clip-rule="evenodd" d="M56.4033 92.3618C57.232 92.3618 57.9033 91.826 57.9033 91.1636C57.9033 90.5011 57.232 89.9644 56.4033 89.9644C55.5759 89.9644 54.9033 90.5011 54.9033 91.1636C54.9033 91.826 55.5759 92.3618 56.4033 92.3618Z" fill="white"/>
<path fill-rule="evenodd" clip-rule="evenodd" d="M79.4033 92.3618C80.232 92.3618 80.9033 91.826 80.9033 91.1636C80.9033 90.5011 80.232 89.9644 79.4033 89.9644C78.5747 89.9644 77.9033 90.5011 77.9033 91.1636C77.9033 91.826 78.5747 92.3618 79.4033 92.3618Z" fill="white"/>
<path fill-rule="evenodd" clip-rule="evenodd" d="M100.403 92.3618C101.232 92.3618 101.903 91.826 101.903 91.1636C101.903 90.5011 101.232 89.9644 100.403 89.9644C99.5747 89.9644 98.9033 90.5011 98.9033 91.1636C98.9033 91.826 99.5747 92.3618 100.403 92.3618Z" fill="white"/>
<path fill-rule="evenodd" clip-rule="evenodd" d="M2.40332 109.944C3.23196 109.944 3.90332 109.408 3.90332 108.746C3.90332 108.083 3.23196 107.546 2.40332 107.546C1.57586 107.546 0.90332 108.083 0.90332 108.746C0.90332 109.408 1.57586 109.944 2.40332 109.944Z" fill="white"/>
<path fill-rule="evenodd" clip-rule="evenodd" d="M23.4033 109.944C24.232 109.944 24.9033 109.408 24.9033 108.746C24.9033 108.083 24.232 107.546 23.4033 107.546C22.5747 107.546 21.9033 108.083 21.9033 108.746C21.9033 109.408 22.5747 109.944 23.4033 109.944Z" fill="white"/>
<path fill-rule="evenodd" clip-rule="evenodd" d="M45.4033 109.944C46.232 109.944 46.9033 109.408 46.9033 108.746C46.9033 108.083 46.232 107.546 45.4033 107.546C44.5747 107.546 43.9033 108.083 43.9033 108.746C43.9033 109.408 44.5747 109.944 45.4033 109.944Z" fill="white"/>
<path fill-rule="evenodd" clip-rule="evenodd" d="M67.4027 109.944C68.2317 109.944 68.9033 109.408 68.9033 108.746C68.9033 108.083 68.2317 107.546 67.4027 107.546C66.5749 107.546 65.9033 108.083 65.9033 108.746C65.9033 109.408 66.5749 109.944 67.4027 109.944Z" fill="white"/>
<path fill-rule="evenodd" clip-rule="evenodd" d="M88.4033 109.944C89.2308 109.944 89.9033 109.408 89.9033 108.746C89.9033 108.083 89.2308 107.546 88.4033 107.546C87.5747 107.546 86.9033 108.083 86.9033 108.746C86.9033 109.408 87.5747 109.944 88.4033 109.944Z" fill="white"/>
<path fill-rule="evenodd" clip-rule="evenodd" d="M13.4027 127.525C14.2317 127.525 14.9033 126.988 14.9033 126.327C14.9033 125.664 14.2317 125.128 13.4027 125.128C12.5749 125.128 11.9033 125.664 11.9033 126.327C11.9033 126.988 12.5749 127.525 13.4027 127.525Z" fill="white"/>
<path fill-rule="evenodd" clip-rule="evenodd" d="M35.4033 127.525C36.2308 127.525 36.9033 126.988 36.9033 126.327C36.9033 125.664 36.2308 125.128 35.4033 125.128C34.5747 125.128 33.9033 125.664 33.9033 126.327C33.9033 126.988 34.5747 127.525 35.4033 127.525Z" fill="white"/>
<path fill-rule="evenodd" clip-rule="evenodd" d="M56.4033 127.525C57.232 127.525 57.9033 126.988 57.9033 126.327C57.9033 125.664 57.232 125.128 56.4033 125.128C55.5759 125.128 54.9033 125.664 54.9033 126.327C54.9033 126.988 55.5759 127.525 56.4033 127.525Z" fill="white"/>
<path fill-rule="evenodd" clip-rule="evenodd" d="M79.4033 127.525C80.232 127.525 80.9033 126.988 80.9033 126.327C80.9033 125.664 80.232 125.128 79.4033 125.128C78.5747 125.128 77.9033 125.664 77.9033 126.327C77.9033 126.988 78.5747 127.525 79.4033 127.525Z" fill="white"/>
<path fill-rule="evenodd" clip-rule="evenodd" d="M100.403 127.525C101.232 127.525 101.903 126.988 101.903 126.327C101.903 125.664 101.232 125.128 100.403 125.128C99.5747 125.128 98.9033 125.664 98.9033 126.327C98.9033 126.988 99.5747 127.525 100.403 127.525Z" fill="white"/>
<path fill-rule="evenodd" clip-rule="evenodd" d="M2.40332 145.107C3.23196 145.107 3.90332 144.569 3.90332 143.908C3.90332 143.246 3.23196 142.709 2.40332 142.709C1.57586 142.709 0.90332 143.246 0.90332 143.908C0.90332 144.569 1.57586 145.107 2.40332 145.107Z" fill="white"/>
<path fill-rule="evenodd" clip-rule="evenodd" d="M23.4033 145.107C24.232 145.107 24.9033 144.569 24.9033 143.908C24.9033 143.246 24.232 142.709 23.4033 142.709C22.5747 142.709 21.9033 143.246 21.9033 143.908C21.9033 144.569 22.5747 145.107 23.4033 145.107Z" fill="white"/>
<path fill-rule="evenodd" clip-rule="evenodd" d="M45.4033 145.107C46.232 145.107 46.9033 144.569 46.9033 143.908C46.9033 143.246 46.232 142.709 45.4033 142.709C44.5747 142.709 43.9033 143.246 43.9033 143.908C43.9033 144.569 44.5747 145.107 45.4033 145.107Z" fill="white"/>
<path fill-rule="evenodd" clip-rule="evenodd" d="M67.4027 145.107C68.2317 145.107 68.9033 144.569 68.9033 143.908C68.9033 143.246 68.2317 142.709 67.4027 142.709C66.5749 142.709 65.9033 143.246 65.9033 143.908C65.9033 144.569 66.5749 145.107 67.4027 145.107Z" fill="white"/>
<path fill-rule="evenodd" clip-rule="evenodd" d="M88.4033 145.107C89.2308 145.107 89.9033 144.569 89.9033 143.908C89.9033 143.246 89.2308 142.709 88.4033 142.709C87.5747 142.709 86.9033 143.246 86.9033 143.908C86.9033 144.569 87.5747 145.107 88.4033 145.107Z" fill="white"/>
<path fill-rule="evenodd" clip-rule="evenodd" d="M13.4027 161.889C14.2317 161.889 14.9033 161.352 14.9033 160.69C14.9033 160.028 14.2317 159.492 13.4027 159.492C12.5749 159.492 11.9033 160.028 11.9033 160.69C11.9033 161.352 12.5749 161.889 13.4027 161.889Z" fill="white"/>
<path fill-rule="evenodd" clip-rule="evenodd" d="M35.4033 161.889C36.2308 161.889 36.9033 161.352 36.9033 160.69C36.9033 160.028 36.2308 159.492 35.4033 159.492C34.5747 159.492 33.9033 160.028 33.9033 160.69C33.9033 161.352 34.5747 161.889 35.4033 161.889Z" fill="white"/>
<path fill-rule="evenodd" clip-rule="evenodd" d="M56.4033 161.889C57.232 161.889 57.9033 161.352 57.9033 160.69C57.9033 160.028 57.232 159.492 56.4033 159.492C55.5759 159.492 54.9033 160.028 54.9033 160.69C54.9033 161.352 55.5759 161.889 56.4033 161.889Z" fill="white"/>
<path fill-rule="evenodd" clip-rule="evenodd" d="M79.4033 161.889C80.232 161.889 80.9033 161.352 80.9033 160.69C80.9033 160.028 80.232 159.492 79.4033 159.492C78.5747 159.492 77.9033 160.028 77.9033 160.69C77.9033 161.352 78.5747 161.889 79.4033 161.889Z" fill="white"/>
<path fill-rule="evenodd" clip-rule="evenodd" d="M100.403 161.889C101.232 161.889 101.903 161.352 101.903 160.69C101.903 160.028 101.232 159.492 100.403 159.492C99.5747 159.492 98.9033 160.028 98.9033 160.69C98.9033 161.352 99.5747 161.889 100.403 161.889Z" fill="white"/>
<path fill-rule="evenodd" clip-rule="evenodd" d="M2.40332 180.27C3.23196 180.27 3.90332 179.734 3.90332 179.072C3.90332 178.409 3.23196 177.873 2.40332 177.873C1.57586 177.873 0.90332 178.409 0.90332 179.072C0.90332 179.734 1.57586 180.27 2.40332 180.27Z" fill="white"/>
<path fill-rule="evenodd" clip-rule="evenodd" d="M23.4033 180.27C24.232 180.27 24.9033 179.734 24.9033 179.072C24.9033 178.409 24.232 177.873 23.4033 177.873C22.5747 177.873 21.9033 178.409 21.9033 179.072C21.9033 179.734 22.5747 180.27 23.4033 180.27Z" fill="white"/>
<path fill-rule="evenodd" clip-rule="evenodd" d="M45.4033 180.27C46.232 180.27 46.9033 179.734 46.9033 179.072C46.9033 178.409 46.232 177.873 45.4033 177.873C44.5747 177.873 43.9033 178.409 43.9033 179.072C43.9033 179.734 44.5747 180.27 45.4033 180.27Z" fill="white"/>
<path fill-rule="evenodd" clip-rule="evenodd" d="M67.4027 180.27C68.2317 180.27 68.9033 179.734 68.9033 179.072C68.9033 178.409 68.2317 177.873 67.4027 177.873C66.5749 177.873 65.9033 178.409 65.9033 179.072C65.9033 179.734 66.5749 180.27 67.4027 180.27Z" fill="white"/>
<path fill-rule="evenodd" clip-rule="evenodd" d="M88.4033 180.27C89.2308 180.27 89.9033 179.734 89.9033 179.072C89.9033 178.409 89.2308 177.873 88.4033 177.873C87.5747 177.873 86.9033 178.409 86.9033 179.072C86.9033 179.734 87.5747 180.27 88.4033 180.27Z" fill="white"/>
<path fill-rule="evenodd" clip-rule="evenodd" d="M13.4027 197.052C14.2317 197.052 14.9033 196.516 14.9033 195.854C14.9033 195.192 14.2317 194.655 13.4027 194.655C12.5749 194.655 11.9033 195.192 11.9033 195.854C11.9033 196.516 12.5749 197.052 13.4027 197.052Z" fill="white"/>
<path fill-rule="evenodd" clip-rule="evenodd" d="M35.4033 197.052C36.2308 197.052 36.9033 196.516 36.9033 195.854C36.9033 195.192 36.2308 194.655 35.4033 194.655C34.5747 194.655 33.9033 195.192 33.9033 195.854C33.9033 196.516 34.5747 197.052 35.4033 197.052Z" fill="white"/>
<path fill-rule="evenodd" clip-rule="evenodd" d="M56.4033 197.052C57.232 197.052 57.9033 196.516 57.9033 195.854C57.9033 195.192 57.232 194.655 56.4033 194.655C55.5759 194.655 54.9033 195.192 54.9033 195.854C54.9033 196.516 55.5759 197.052 56.4033 197.052Z" fill="white"/>
<path fill-rule="evenodd" clip-rule="evenodd" d="M79.4033 197.052C80.232 197.052 80.9033 196.516 80.9033 195.854C80.9033 195.192 80.232 194.655 79.4033 194.655C78.5747 194.655 77.9033 195.192 77.9033 195.854C77.9033 196.516 78.5747 197.052 79.4033 197.052Z" fill="white"/>
<path fill-rule="evenodd" clip-rule="evenodd" d="M100.403 197.052C101.232 197.052 101.903 196.516 101.903 195.854C101.903 195.192 101.232 194.655 100.403 194.655C99.5747 194.655 98.9033 195.192 98.9033 195.854C98.9033 196.516 99.5747 197.052 100.403 197.052Z" fill="white"/>
<path fill-rule="evenodd" clip-rule="evenodd" d="M2.40332 210.638C3.23196 210.638 3.90332 210.101 3.90332 209.439C3.90332 208.777 3.23196 208.241 2.40332 208.241C1.57586 208.241 0.90332 208.777 0.90332 209.439C0.90332 210.101 1.57586 210.638 2.40332 210.638Z" fill="white"/>
<path fill-rule="evenodd" clip-rule="evenodd" d="M23.4033 210.638C24.232 210.638 24.9033 210.101 24.9033 209.439C24.9033 208.777 24.232 208.241 23.4033 208.241C22.5747 208.241 21.9033 208.777 21.9033 209.439C21.9033 210.101 22.5747 210.638 23.4033 210.638Z" fill="white"/>
<path fill-rule="evenodd" clip-rule="evenodd" d="M45.4033 210.638C46.232 210.638 46.9033 210.101 46.9033 209.439C46.9033 208.777 46.232 208.241 45.4033 208.241C44.5747 208.241 43.9033 208.777 43.9033 209.439C43.9033 210.101 44.5747 210.638 45.4033 210.638Z" fill="white"/>
<path fill-rule="evenodd" clip-rule="evenodd" d="M67.4027 210.638C68.2317 210.638 68.9033 210.101 68.9033 209.439C68.9033 208.777 68.2317 208.241 67.4027 208.241C66.5749 208.241 65.9033 208.777 65.9033 209.439C65.9033 210.101 66.5749 210.638 67.4027 210.638Z" fill="white"/>
<path fill-rule="evenodd" clip-rule="evenodd" d="M88.4033 210.638C89.2308 210.638 89.9033 210.101 89.9033 209.439C89.9033 208.777 89.2308 208.241 88.4033 208.241C87.5747 208.241 86.9033 208.777 86.9033 209.439C86.9033 210.101 87.5747 210.638 88.4033 210.638Z" fill="white"/>
<path fill-rule="evenodd" clip-rule="evenodd" d="M13.4027 228.22C14.2317 228.22 14.9033 227.684 14.9033 227.021C14.9033 226.359 14.2317 225.822 13.4027 225.822C12.5749 225.822 11.9033 226.359 11.9033 227.021C11.9033 227.684 12.5749 228.22 13.4027 228.22Z" fill="white"/>
<path fill-rule="evenodd" clip-rule="evenodd" d="M35.4033 228.22C36.2308 228.22 36.9033 227.684 36.9033 227.021C36.9033 226.359 36.2308 225.822 35.4033 225.822C34.5747 225.822 33.9033 226.359 33.9033 227.021C33.9033 227.684 34.5747 228.22 35.4033 228.22Z" fill="white"/>
<path fill-rule="evenodd" clip-rule="evenodd" d="M56.4033 228.22C57.232 228.22 57.9033 227.684 57.9033 227.021C57.9033 226.359 57.232 225.822 56.4033 225.822C55.5759 225.822 54.9033 226.359 54.9033 227.021C54.9033 227.684 55.5759 228.22 56.4033 228.22Z" fill="white"/>
<path fill-rule="evenodd" clip-rule="evenodd" d="M79.4033 228.22C80.232 228.22 80.9033 227.684 80.9033 227.021C80.9033 226.359 80.232 225.822 79.4033 225.822C78.5747 225.822 77.9033 226.359 77.9033 227.021C77.9033 227.684 78.5747 228.22 79.4033 228.22Z" fill="white"/>
<path fill-rule="evenodd" clip-rule="evenodd" d="M100.403 228.22C101.232 228.22 101.903 227.684 101.903 227.021C101.903 226.359 101.232 225.822 100.403 225.822C99.5747 225.822 98.9033 226.359 98.9033 227.021C98.9033 227.684 99.5747 228.22 100.403 228.22Z" fill="white"/>
<path fill-rule="evenodd" clip-rule="evenodd" d="M2.40332 245.801C3.23196 245.801 3.90332 245.265 3.90332 244.603C3.90332 243.941 3.23196 243.404 2.40332 243.404C1.57586 243.404 0.90332 243.941 0.90332 244.603C0.90332 245.265 1.57586 245.801 2.40332 245.801Z" fill="white"/>
<path fill-rule="evenodd" clip-rule="evenodd" d="M23.4033 245.801C24.232 245.801 24.9033 245.265 24.9033 244.603C24.9033 243.941 24.232 243.404 23.4033 243.404C22.5747 243.404 21.9033 243.941 21.9033 244.603C21.9033 245.265 22.5747 245.801 23.4033 245.801Z" fill="white"/>
<path fill-rule="evenodd" clip-rule="evenodd" d="M45.4033 245.801C46.232 245.801 46.9033 245.265 46.9033 244.603C46.9033 243.941 46.232 243.404 45.4033 243.404C44.5747 243.404 43.9033 243.941 43.9033 244.603C43.9033 245.265 44.5747 245.801 45.4033 245.801Z" fill="white"/>
<path fill-rule="evenodd" clip-rule="evenodd" d="M67.4027 245.801C68.2317 245.801 68.9033 245.265 68.9033 244.603C68.9033 243.941 68.2317 243.404 67.4027 243.404C66.5749 243.404 65.9033 243.941 65.9033 244.603C65.9033 245.265 66.5749 245.801 67.4027 245.801Z" fill="white"/>
<path fill-rule="evenodd" clip-rule="evenodd" d="M88.4033 245.801C89.2308 245.801 89.9033 245.265 89.9033 244.603C89.9033 243.941 89.2308 243.404 88.4033 243.404C87.5747 243.404 86.9033 243.941 86.9033 244.603C86.9033 245.265 87.5747 245.801 88.4033 245.801Z" fill="white"/>
<path fill-rule="evenodd" clip-rule="evenodd" d="M13.4027 263.383C14.2317 263.383 14.9033 262.845 14.9033 262.184C14.9033 261.522 14.2317 260.985 13.4027 260.985C12.5749 260.985 11.9033 261.522 11.9033 262.184C11.9033 262.845 12.5749 263.383 13.4027 263.383Z" fill="white"/>
<path fill-rule="evenodd" clip-rule="evenodd" d="M35.4033 263.383C36.2308 263.383 36.9033 262.845 36.9033 262.184C36.9033 261.522 36.2308 260.985 35.4033 260.985C34.5747 260.985 33.9033 261.522 33.9033 262.184C33.9033 262.845 34.5747 263.383 35.4033 263.383Z" fill="white"/>
<path fill-rule="evenodd" clip-rule="evenodd" d="M56.4033 263.383C57.232 263.383 57.9033 262.845 57.9033 262.184C57.9033 261.522 57.232 260.985 56.4033 260.985C55.5759 260.985 54.9033 261.522 54.9033 262.184C54.9033 262.845 55.5759 263.383 56.4033 263.383Z" fill="white"/>
<path fill-rule="evenodd" clip-rule="evenodd" d="M79.4033 263.383C80.232 263.383 80.9033 262.845 80.9033 262.184C80.9033 261.522 80.232 260.985 79.4033 260.985C78.5747 260.985 77.9033 261.522 77.9033 262.184C77.9033 262.845 78.5747 263.383 79.4033 263.383Z" fill="white"/>
<path fill-rule="evenodd" clip-rule="evenodd" d="M100.403 263.383C101.232 263.383 101.903 262.845 101.903 262.184C101.903 261.522 101.232 260.985 100.403 260.985C99.5747 260.985 98.9033 261.522 98.9033 262.184C98.9033 262.845 99.5747 263.383 100.403 263.383Z" fill="white"/>
<path fill-rule="evenodd" clip-rule="evenodd" d="M2.40332 280.165C3.23196 280.165 3.90332 279.628 3.90332 278.966C3.90332 278.304 3.23196 277.768 2.40332 277.768C1.57586 277.768 0.90332 278.304 0.90332 278.966C0.90332 279.628 1.57586 280.165 2.40332 280.165Z" fill="white"/>
<path fill-rule="evenodd" clip-rule="evenodd" d="M23.4033 280.165C24.232 280.165 24.9033 279.628 24.9033 278.966C24.9033 278.304 24.232 277.768 23.4033 277.768C22.5747 277.768 21.9033 278.304 21.9033 278.966C21.9033 279.628 22.5747 280.165 23.4033 280.165Z" fill="white"/>
<path fill-rule="evenodd" clip-rule="evenodd" d="M45.4033 280.165C46.232 280.165 46.9033 279.628 46.9033 278.966C46.9033 278.304 46.232 277.768 45.4033 277.768C44.5747 277.768 43.9033 278.304 43.9033 278.966C43.9033 279.628 44.5747 280.165 45.4033 280.165Z" fill="white"/>
<path fill-rule="evenodd" clip-rule="evenodd" d="M67.4027 280.165C68.2317 280.165 68.9033 279.628 68.9033 278.966C68.9033 278.304 68.2317 277.768 67.4027 277.768C66.5749 277.768 65.9033 278.304 65.9033 278.966C65.9033 279.628 66.5749 280.165 67.4027 280.165Z" fill="white"/>
<path fill-rule="evenodd" clip-rule="evenodd" d="M88.4033 280.165C89.2308 280.165 89.9033 279.628 89.9033 278.966C89.9033 278.304 89.2308 277.768 88.4033 277.768C87.5747 277.768 86.9033 278.304 86.9033 278.966C86.9033 279.628 87.5747 280.165 88.4033 280.165Z" fill="white"/>
<path fill-rule="evenodd" clip-rule="evenodd" d="M13.4027 297.747C14.2317 297.747 14.9033 297.21 14.9033 296.548C14.9033 295.886 14.2317 295.349 13.4027 295.349C12.5749 295.349 11.9033 295.886 11.9033 296.548C11.9033 297.21 12.5749 297.747 13.4027 297.747Z" fill="white"/>
<path fill-rule="evenodd" clip-rule="evenodd" d="M35.4033 297.747C36.2308 297.747 36.9033 297.21 36.9033 296.548C36.9033 295.886 36.2308 295.349 35.4033 295.349C34.5747 295.349 33.9033 295.886 33.9033 296.548C33.9033 297.21 34.5747 297.747 35.4033 297.747Z" fill="white"/>
<path fill-rule="evenodd" clip-rule="evenodd" d="M56.4033 297.747C57.232 297.747 57.9033 297.21 57.9033 296.548C57.9033 295.886 57.232 295.349 56.4033 295.349C55.5759 295.349 54.9033 295.886 54.9033 296.548C54.9033 297.21 55.5759 297.747 56.4033 297.747Z" fill="white"/>
<path fill-rule="evenodd" clip-rule="evenodd" d="M79.4033 297.747C80.232 297.747 80.9033 297.21 80.9033 296.548C80.9033 295.886 80.232 295.349 79.4033 295.349C78.5747 295.349 77.9033 295.886 77.9033 296.548C77.9033 297.21 78.5747 297.747 79.4033 297.747Z" fill="white"/>
<path fill-rule="evenodd" clip-rule="evenodd" d="M100.403 297.747C101.232 297.747 101.903 297.21 101.903 296.548C101.903 295.886 101.232 295.349 100.403 295.349C99.5747 295.349 98.9033 295.886 98.9033 296.548C98.9033 297.21 99.5747 297.747 100.403 297.747Z" fill="white"/>
<path fill-rule="evenodd" clip-rule="evenodd" d="M2.40332 315.328C3.23196 315.328 3.90332 314.792 3.90332 314.13C3.90332 313.467 3.23196 312.931 2.40332 312.931C1.57586 312.931 0.90332 313.467 0.90332 314.13C0.90332 314.792 1.57586 315.328 2.40332 315.328Z" fill="white"/>
<path fill-rule="evenodd" clip-rule="evenodd" d="M23.4033 315.328C24.232 315.328 24.9033 314.792 24.9033 314.13C24.9033 313.467 24.232 312.931 23.4033 312.931C22.5747 312.931 21.9033 313.467 21.9033 314.13C21.9033 314.792 22.5747 315.328 23.4033 315.328Z" fill="white"/>
<path fill-rule="evenodd" clip-rule="evenodd" d="M45.4033 315.328C46.232 315.328 46.9033 314.792 46.9033 314.13C46.9033 313.467 46.232 312.931 45.4033 312.931C44.5747 312.931 43.9033 313.467 43.9033 314.13C43.9033 314.792 44.5747 315.328 45.4033 315.328Z" fill="white"/>
<path fill-rule="evenodd" clip-rule="evenodd" d="M67.4027 315.328C68.2317 315.328 68.9033 314.792 68.9033 314.13C68.9033 313.467 68.2317 312.931 67.4027 312.931C66.5749 312.931 65.9033 313.467 65.9033 314.13C65.9033 314.792 66.5749 315.328 67.4027 315.328Z" fill="white"/>
<path fill-rule="evenodd" clip-rule="evenodd" d="M88.4033 315.328C89.2308 315.328 89.9033 314.792 89.9033 314.13C89.9033 313.467 89.2308 312.931 88.4033 312.931C87.5747 312.931 86.9033 313.467 86.9033 314.13C86.9033 314.792 87.5747 315.328 88.4033 315.328Z" fill="white"/>
<path fill-rule="evenodd" clip-rule="evenodd" d="M13.4027 332.111C14.2317 332.111 14.9033 331.575 14.9033 330.913C14.9033 330.25 14.2317 329.713 13.4027 329.713C12.5749 329.713 11.9033 330.25 11.9033 330.913C11.9033 331.575 12.5749 332.111 13.4027 332.111Z" fill="white"/>
<path fill-rule="evenodd" clip-rule="evenodd" d="M35.4033 332.111C36.2308 332.111 36.9033 331.575 36.9033 330.913C36.9033 330.25 36.2308 329.713 35.4033 329.713C34.5747 329.713 33.9033 330.25 33.9033 330.913C33.9033 331.575 34.5747 332.111 35.4033 332.111Z" fill="white"/>
<path fill-rule="evenodd" clip-rule="evenodd" d="M56.4033 332.111C57.232 332.111 57.9033 331.575 57.9033 330.913C57.9033 330.25 57.232 329.713 56.4033 329.713C55.5759 329.713 54.9033 330.25 54.9033 330.913C54.9033 331.575 55.5759 332.111 56.4033 332.111Z" fill="white"/>
<path fill-rule="evenodd" clip-rule="evenodd" d="M79.4033 332.111C80.232 332.111 80.9033 331.575 80.9033 330.913C80.9033 330.25 80.232 329.713 79.4033 329.713C78.5747 329.713 77.9033 330.25 77.9033 330.913C77.9033 331.575 78.5747 332.111 79.4033 332.111Z" fill="white"/>
<path fill-rule="evenodd" clip-rule="evenodd" d="M100.403 332.111C101.232 332.111 101.903 331.575 101.903 330.913C101.903 330.25 101.232 329.713 100.403 329.713C99.5747 329.713 98.9033 330.25 98.9033 330.913C98.9033 331.575 99.5747 332.111 100.403 332.111Z" fill="white"/>
<path fill-rule="evenodd" clip-rule="evenodd" d="M2.40332 350.491C3.23196 350.491 3.90332 349.954 3.90332 349.292C3.90332 348.63 3.23196 348.094 2.40332 348.094C1.57586 348.094 0.90332 348.63 0.90332 349.292C0.90332 349.954 1.57586 350.491 2.40332 350.491Z" fill="white"/>
<path fill-rule="evenodd" clip-rule="evenodd" d="M23.4033 350.491C24.232 350.491 24.9033 349.954 24.9033 349.292C24.9033 348.63 24.232 348.094 23.4033 348.094C22.5747 348.094 21.9033 348.63 21.9033 349.292C21.9033 349.954 22.5747 350.491 23.4033 350.491Z" fill="white"/>
<path fill-rule="evenodd" clip-rule="evenodd" d="M45.4033 350.491C46.232 350.491 46.9033 349.954 46.9033 349.292C46.9033 348.63 46.232 348.094 45.4033 348.094C44.5747 348.094 43.9033 348.63 43.9033 349.292C43.9033 349.954 44.5747 350.491 45.4033 350.491Z" fill="white"/>
<path fill-rule="evenodd" clip-rule="evenodd" d="M67.4027 350.491C68.2317 350.491 68.9033 349.954 68.9033 349.292C68.9033 348.63 68.2317 348.094 67.4027 348.094C66.5749 348.094 65.9033 348.63 65.9033 349.292C65.9033 349.954 66.5749 350.491 67.4027 350.491Z" fill="white"/>
<path fill-rule="evenodd" clip-rule="evenodd" d="M88.4033 350.491C89.2308 350.491 89.9033 349.954 89.9033 349.292C89.9033 348.63 89.2308 348.094 88.4033 348.094C87.5747 348.094 86.9033 348.63 86.9033 349.292C86.9033 349.954 87.5747 350.491 88.4033 350.491Z" fill="white"/>
<path fill-rule="evenodd" clip-rule="evenodd" d="M13.4027 367.274C14.2317 367.274 14.9033 366.736 14.9033 366.075C14.9033 365.413 14.2317 364.876 13.4027 364.876C12.5749 364.876 11.9033 365.413 11.9033 366.075C11.9033 366.736 12.5749 367.274 13.4027 367.274Z" fill="white"/>
<path fill-rule="evenodd" clip-rule="evenodd" d="M35.4033 367.274C36.2308 367.274 36.9033 366.736 36.9033 366.075C36.9033 365.413 36.2308 364.876 35.4033 364.876C34.5747 364.876 33.9033 365.413 33.9033 366.075C33.9033 366.736 34.5747 367.274 35.4033 367.274Z" fill="white"/>
<path fill-rule="evenodd" clip-rule="evenodd" d="M56.4033 367.274C57.232 367.274 57.9033 366.736 57.9033 366.075C57.9033 365.413 57.232 364.876 56.4033 364.876C55.5759 364.876 54.9033 365.413 54.9033 366.075C54.9033 366.736 55.5759 367.274 56.4033 367.274Z" fill="white"/>
<path fill-rule="evenodd" clip-rule="evenodd" d="M79.4033 367.274C80.232 367.274 80.9033 366.736 80.9033 366.075C80.9033 365.413 80.232 364.876 79.4033 364.876C78.5747 364.876 77.9033 365.413 77.9033 366.075C77.9033 366.736 78.5747 367.274 79.4033 367.274Z" fill="white"/>
<path fill-rule="evenodd" clip-rule="evenodd" d="M100.403 367.274C101.232 367.274 101.903 366.736 101.903 366.075C101.903 365.413 101.232 364.876 100.403 364.876C99.5747 364.876 98.9033 365.413 98.9033 366.075C98.9033 366.736 99.5747 367.274 100.403 367.274Z" fill="white"/>
<path fill-rule="evenodd" clip-rule="evenodd" d="M2.40332 385.654C3.23196 385.654 3.90332 385.117 3.90332 384.456C3.90332 383.793 3.23196 383.257 2.40332 383.257C1.57586 383.257 0.90332 383.793 0.90332 384.456C0.90332 385.117 1.57586 385.654 2.40332 385.654Z" fill="white"/>
<path fill-rule="evenodd" clip-rule="evenodd" d="M23.4033 385.654C24.232 385.654 24.9033 385.117 24.9033 384.456C24.9033 383.793 24.232 383.257 23.4033 383.257C22.5747 383.257 21.9033 383.793 21.9033 384.456C21.9033 385.117 22.5747 385.654 23.4033 385.654Z" fill="white"/>
<path fill-rule="evenodd" clip-rule="evenodd" d="M45.4033 385.654C46.232 385.654 46.9033 385.117 46.9033 384.456C46.9033 383.793 46.232 383.257 45.4033 383.257C44.5747 383.257 43.9033 383.793 43.9033 384.456C43.9033 385.117 44.5747 385.654 45.4033 385.654Z" fill="white"/>
<path fill-rule="evenodd" clip-rule="evenodd" d="M67.4027 385.654C68.2317 385.654 68.9033 385.117 68.9033 384.456C68.9033 383.793 68.2317 383.257 67.4027 383.257C66.5749 383.257 65.9033 383.793 65.9033 384.456C65.9033 385.117 66.5749 385.654 67.4027 385.654Z" fill="white"/>
<path fill-rule="evenodd" clip-rule="evenodd" d="M88.4033 385.654C89.2308 385.654 89.9033 385.117 89.9033 384.456C89.9033 383.793 89.2308 383.257 88.4033 383.257C87.5747 383.257 86.9033 383.793 86.9033 384.456C86.9033 385.117 87.5747 385.654 88.4033 385.654Z" fill="white"/>
<path fill-rule="evenodd" clip-rule="evenodd" d="M13.4027 402.437C14.2317 402.437 14.9033 401.901 14.9033 401.239C14.9033 400.576 14.2317 400.04 13.4027 400.04C12.5749 400.04 11.9033 400.576 11.9033 401.239C11.9033 401.901 12.5749 402.437 13.4027 402.437Z" fill="white"/>
<path fill-rule="evenodd" clip-rule="evenodd" d="M35.4033 402.437C36.2308 402.437 36.9033 401.901 36.9033 401.239C36.9033 400.576 36.2308 400.04 35.4033 400.04C34.5747 400.04 33.9033 400.576 33.9033 401.239C33.9033 401.901 34.5747 402.437 35.4033 402.437Z" fill="white"/>
<path fill-rule="evenodd" clip-rule="evenodd" d="M56.4033 402.437C57.232 402.437 57.9033 401.901 57.9033 401.239C57.9033 400.576 57.232 400.04 56.4033 400.04C55.5759 400.04 54.9033 400.576 54.9033 401.239C54.9033 401.901 55.5759 402.437 56.4033 402.437Z" fill="white"/>
<path fill-rule="evenodd" clip-rule="evenodd" d="M79.4033 402.437C80.232 402.437 80.9033 401.901 80.9033 401.239C80.9033 400.576 80.232 400.04 79.4033 400.04C78.5747 400.04 77.9033 400.576 77.9033 401.239C77.9033 401.901 78.5747 402.437 79.4033 402.437Z" fill="white"/>
<path fill-rule="evenodd" clip-rule="evenodd" d="M100.403 402.437C101.232 402.437 101.903 401.901 101.903 401.239C101.903 400.576 101.232 400.04 100.403 400.04C99.5747 400.04 98.9033 400.576 98.9033 401.239C98.9033 401.901 99.5747 402.437 100.403 402.437Z" fill="white"/>
<path fill-rule="evenodd" clip-rule="evenodd" d="M2.40332 420.019C3.23196 420.019 3.90332 419.483 3.90332 418.82C3.90332 418.158 3.23196 417.621 2.40332 417.621C1.57586 417.621 0.90332 418.158 0.90332 418.82C0.90332 419.483 1.57586 420.019 2.40332 420.019Z" fill="white"/>
<path fill-rule="evenodd" clip-rule="evenodd" d="M23.4033 420.019C24.232 420.019 24.9033 419.483 24.9033 418.82C24.9033 418.158 24.232 417.621 23.4033 417.621C22.5747 417.621 21.9033 418.158 21.9033 418.82C21.9033 419.483 22.5747 420.019 23.4033 420.019Z" fill="white"/>
<path fill-rule="evenodd" clip-rule="evenodd" d="M45.4033 420.019C46.232 420.019 46.9033 419.483 46.9033 418.82C46.9033 418.158 46.232 417.621 45.4033 417.621C44.5747 417.621 43.9033 418.158 43.9033 418.82C43.9033 419.483 44.5747 420.019 45.4033 420.019Z" fill="white"/>
<path fill-rule="evenodd" clip-rule="evenodd" d="M67.4027 420.019C68.2317 420.019 68.9033 419.483 68.9033 418.82C68.9033 418.158 68.2317 417.621 67.4027 417.621C66.5749 417.621 65.9033 418.158 65.9033 418.82C65.9033 419.483 66.5749 420.019 67.4027 420.019Z" fill="white"/>
<path fill-rule="evenodd" clip-rule="evenodd" d="M88.4033 420.019C89.2308 420.019 89.9033 419.483 89.9033 418.82C89.9033 418.158 89.2308 417.621 88.4033 417.621C87.5747 417.621 86.9033 418.158 86.9033 418.82C86.9033 419.483 87.5747 420.019 88.4033 420.019Z" fill="white"/>
<path fill-rule="evenodd" clip-rule="evenodd" d="M13.4027 437.6C14.2317 437.6 14.9033 437.063 14.9033 436.401C14.9033 435.739 14.2317 435.203 13.4027 435.203C12.5749 435.203 11.9033 435.739 11.9033 436.401C11.9033 437.063 12.5749 437.6 13.4027 437.6Z" fill="white"/>
<path fill-rule="evenodd" clip-rule="evenodd" d="M35.4033 437.6C36.2308 437.6 36.9033 437.063 36.9033 436.401C36.9033 435.739 36.2308 435.203 35.4033 435.203C34.5747 435.203 33.9033 435.739 33.9033 436.401C33.9033 437.063 34.5747 437.6 35.4033 437.6Z" fill="white"/>
<path fill-rule="evenodd" clip-rule="evenodd" d="M56.4033 437.6C57.232 437.6 57.9033 437.063 57.9033 436.401C57.9033 435.739 57.232 435.203 56.4033 435.203C55.5759 435.203 54.9033 435.739 54.9033 436.401C54.9033 437.063 55.5759 437.6 56.4033 437.6Z" fill="white"/>
<path fill-rule="evenodd" clip-rule="evenodd" d="M79.4033 437.6C80.232 437.6 80.9033 437.063 80.9033 436.401C80.9033 435.739 80.232 435.203 79.4033 435.203C78.5747 435.203 77.9033 435.739 77.9033 436.401C77.9033 437.063 78.5747 437.6 79.4033 437.6Z" fill="white"/>
<path fill-rule="evenodd" clip-rule="evenodd" d="M100.403 437.6C101.232 437.6 101.903 437.063 101.903 436.401C101.903 435.739 101.232 435.203 100.403 435.203C99.5747 435.203 98.9033 435.739 98.9033 436.401C98.9033 437.063 99.5747 437.6 100.403 437.6Z" fill="white"/>
<path fill-rule="evenodd" clip-rule="evenodd" d="M2.40332 455.182C3.23196 455.182 3.90332 454.644 3.90332 453.983C3.90332 453.321 3.23196 452.784 2.40332 452.784C1.57586 452.784 0.90332 453.321 0.90332 453.983C0.90332 454.644 1.57586 455.182 2.40332 455.182Z" fill="white"/>
<path fill-rule="evenodd" clip-rule="evenodd" d="M23.4033 455.182C24.232 455.182 24.9033 454.644 24.9033 453.983C24.9033 453.321 24.232 452.784 23.4033 452.784C22.5747 452.784 21.9033 453.321 21.9033 453.983C21.9033 454.644 22.5747 455.182 23.4033 455.182Z" fill="white"/>
<path fill-rule="evenodd" clip-rule="evenodd" d="M45.4033 455.182C46.232 455.182 46.9033 454.644 46.9033 453.983C46.9033 453.321 46.232 452.784 45.4033 452.784C44.5747 452.784 43.9033 453.321 43.9033 453.983C43.9033 454.644 44.5747 455.182 45.4033 455.182Z" fill="white"/>
<path fill-rule="evenodd" clip-rule="evenodd" d="M67.4027 455.182C68.2317 455.182 68.9033 454.644 68.9033 453.983C68.9033 453.321 68.2317 452.784 67.4027 452.784C66.5749 452.784 65.9033 453.321 65.9033 453.983C65.9033 454.644 66.5749 455.182 67.4027 455.182Z" fill="white"/>
<path fill-rule="evenodd" clip-rule="evenodd" d="M88.4033 455.182C89.2308 455.182 89.9033 454.644 89.9033 453.983C89.9033 453.321 89.2308 452.784 88.4033 452.784C87.5747 452.784 86.9033 453.321 86.9033 453.983C86.9033 454.644 87.5747 455.182 88.4033 455.182Z" fill="white"/>
<path fill-rule="evenodd" clip-rule="evenodd" d="M13.4027 471.964C14.2317 471.964 14.9033 471.426 14.9033 470.765C14.9033 470.103 14.2317 469.566 13.4027 469.566C12.5749 469.566 11.9033 470.103 11.9033 470.765C11.9033 471.426 12.5749 471.964 13.4027 471.964Z" fill="white"/>
<path fill-rule="evenodd" clip-rule="evenodd" d="M35.4033 471.964C36.2308 471.964 36.9033 471.426 36.9033 470.765C36.9033 470.103 36.2308 469.566 35.4033 469.566C34.5747 469.566 33.9033 470.103 33.9033 470.765C33.9033 471.426 34.5747 471.964 35.4033 471.964Z" fill="white"/>
<path fill-rule="evenodd" clip-rule="evenodd" d="M56.4033 471.964C57.232 471.964 57.9033 471.426 57.9033 470.765C57.9033 470.103 57.232 469.566 56.4033 469.566C55.5759 469.566 54.9033 470.103 54.9033 470.765C54.9033 471.426 55.5759 471.964 56.4033 471.964Z" fill="white"/>
<path fill-rule="evenodd" clip-rule="evenodd" d="M79.4033 471.964C80.232 471.964 80.9033 471.426 80.9033 470.765C80.9033 470.103 80.232 469.566 79.4033 469.566C78.5747 469.566 77.9033 470.103 77.9033 470.765C77.9033 471.426 78.5747 471.964 79.4033 471.964Z" fill="white"/>
<path fill-rule="evenodd" clip-rule="evenodd" d="M100.403 471.964C101.232 471.964 101.903 471.426 101.903 470.765C101.903 470.103 101.232 469.566 100.403 469.566C99.5747 469.566 98.9033 470.103 98.9033 470.765C98.9033 471.426 99.5747 471.964 100.403 471.964Z" fill="white"/>
<path fill-rule="evenodd" clip-rule="evenodd" d="M2.40332 489.546C3.23196 489.546 3.90332 489.01 3.90332 488.348C3.90332 487.685 3.23196 487.148 2.40332 487.148C1.57586 487.148 0.90332 487.685 0.90332 488.348C0.90332 489.01 1.57586 489.546 2.40332 489.546Z" fill="white"/>
<path fill-rule="evenodd" clip-rule="evenodd" d="M23.4033 489.546C24.232 489.546 24.9033 489.01 24.9033 488.348C24.9033 487.685 24.232 487.148 23.4033 487.148C22.5747 487.148 21.9033 487.685 21.9033 488.348C21.9033 489.01 22.5747 489.546 23.4033 489.546Z" fill="white"/>
<path fill-rule="evenodd" clip-rule="evenodd" d="M45.4033 489.546C46.232 489.546 46.9033 489.01 46.9033 488.348C46.9033 487.685 46.232 487.148 45.4033 487.148C44.5747 487.148 43.9033 487.685 43.9033 488.348C43.9033 489.01 44.5747 489.546 45.4033 489.546Z" fill="white"/>
<path fill-rule="evenodd" clip-rule="evenodd" d="M67.4027 489.546C68.2317 489.546 68.9033 489.01 68.9033 488.348C68.9033 487.685 68.2317 487.148 67.4027 487.148C66.5749 487.148 65.9033 487.685 65.9033 488.348C65.9033 489.01 66.5749 489.546 67.4027 489.546Z" fill="white"/>
<path fill-rule="evenodd" clip-rule="evenodd" d="M88.4033 489.546C89.2308 489.546 89.9033 489.01 89.9033 488.348C89.9033 487.685 89.2308 487.148 88.4033 487.148C87.5747 487.148 86.9033 487.685 86.9033 488.348C86.9033 489.01 87.5747 489.546 88.4033 489.546Z" fill="white"/>
<path fill-rule="evenodd" clip-rule="evenodd" d="M13.4027 507.127C14.2317 507.127 14.9033 506.591 14.9033 505.929C14.9033 505.266 14.2317 504.729 13.4027 504.729C12.5749 504.729 11.9033 505.266 11.9033 505.929C11.9033 506.591 12.5749 507.127 13.4027 507.127Z" fill="white"/>
<path fill-rule="evenodd" clip-rule="evenodd" d="M35.4033 507.127C36.2308 507.127 36.9033 506.591 36.9033 505.929C36.9033 505.266 36.2308 504.729 35.4033 504.729C34.5747 504.729 33.9033 505.266 33.9033 505.929C33.9033 506.591 34.5747 507.127 35.4033 507.127Z" fill="white"/>
<path fill-rule="evenodd" clip-rule="evenodd" d="M56.4033 507.127C57.232 507.127 57.9033 506.591 57.9033 505.929C57.9033 505.266 57.232 504.729 56.4033 504.729C55.5759 504.729 54.9033 505.266 54.9033 505.929C54.9033 506.591 55.5759 507.127 56.4033 507.127Z" fill="white"/>
<path fill-rule="evenodd" clip-rule="evenodd" d="M79.4033 507.127C80.232 507.127 80.9033 506.591 80.9033 505.929C80.9033 505.266 80.232 504.729 79.4033 504.729C78.5747 504.729 77.9033 505.266 77.9033 505.929C77.9033 506.591 78.5747 507.127 79.4033 507.127Z" fill="white"/>
<path fill-rule="evenodd" clip-rule="evenodd" d="M100.403 507.127C101.232 507.127 101.903 506.591 101.903 505.929C101.903 505.266 101.232 504.729 100.403 504.729C99.5747 504.729 98.9033 505.266 98.9033 505.929C98.9033 506.591 99.5747 507.127 100.403 507.127Z" fill="white"/>
<path fill-rule="evenodd" clip-rule="evenodd" d="M2.40332 520.713C3.23196 520.713 3.90332 520.175 3.90332 519.514C3.90332 518.852 3.23196 518.315 2.40332 518.315C1.57586 518.315 0.90332 518.852 0.90332 519.514C0.90332 520.175 1.57586 520.713 2.40332 520.713Z" fill="white"/>
<path fill-rule="evenodd" clip-rule="evenodd" d="M23.4033 520.713C24.232 520.713 24.9033 520.175 24.9033 519.514C24.9033 518.852 24.232 518.315 23.4033 518.315C22.5747 518.315 21.9033 518.852 21.9033 519.514C21.9033 520.175 22.5747 520.713 23.4033 520.713Z" fill="white"/>
<path fill-rule="evenodd" clip-rule="evenodd" d="M45.4033 520.713C46.232 520.713 46.9033 520.175 46.9033 519.514C46.9033 518.852 46.232 518.315 45.4033 518.315C44.5747 518.315 43.9033 518.852 43.9033 519.514C43.9033 520.175 44.5747 520.713 45.4033 520.713Z" fill="white"/>
<path fill-rule="evenodd" clip-rule="evenodd" d="M67.4027 520.713C68.2317 520.713 68.9033 520.175 68.9033 519.514C68.9033 518.852 68.2317 518.315 67.4027 518.315C66.5749 518.315 65.9033 518.852 65.9033 519.514C65.9033 520.175 66.5749 520.713 67.4027 520.713Z" fill="white"/>
<path fill-rule="evenodd" clip-rule="evenodd" d="M88.4033 520.713C89.2308 520.713 89.9033 520.175 89.9033 519.514C89.9033 518.852 89.2308 518.315 88.4033 518.315C87.5747 518.315 86.9033 518.852 86.9033 519.514C86.9033 520.175 87.5747 520.713 88.4033 520.713Z" fill="white"/>
<path fill-rule="evenodd" clip-rule="evenodd" d="M13.4027 537.495C14.2317 537.495 14.9033 536.959 14.9033 536.297C14.9033 535.634 14.2317 535.098 13.4027 535.098C12.5749 535.098 11.9033 535.634 11.9033 536.297C11.9033 536.959 12.5749 537.495 13.4027 537.495Z" fill="white"/>
<path fill-rule="evenodd" clip-rule="evenodd" d="M35.4033 537.495C36.2308 537.495 36.9033 536.959 36.9033 536.297C36.9033 535.634 36.2308 535.098 35.4033 535.098C34.5747 535.098 33.9033 535.634 33.9033 536.297C33.9033 536.959 34.5747 537.495 35.4033 537.495Z" fill="white"/>
<path fill-rule="evenodd" clip-rule="evenodd" d="M56.4033 537.495C57.232 537.495 57.9033 536.959 57.9033 536.297C57.9033 535.634 57.232 535.098 56.4033 535.098C55.5759 535.098 54.9033 535.634 54.9033 536.297C54.9033 536.959 55.5759 537.495 56.4033 537.495Z" fill="white"/>
<path fill-rule="evenodd" clip-rule="evenodd" d="M79.4033 537.495C80.232 537.495 80.9033 536.959 80.9033 536.297C80.9033 535.634 80.232 535.098 79.4033 535.098C78.5747 535.098 77.9033 535.634 77.9033 536.297C77.9033 536.959 78.5747 537.495 79.4033 537.495Z" fill="white"/>
<path fill-rule="evenodd" clip-rule="evenodd" d="M100.403 537.495C101.232 537.495 101.903 536.959 101.903 536.297C101.903 535.634 101.232 535.098 100.403 535.098C99.5747 535.098 98.9033 535.634 98.9033 536.297C98.9033 536.959 99.5747 537.495 100.403 537.495Z" fill="white"/>
<path fill-rule="evenodd" clip-rule="evenodd" d="M2.40332 555.876C3.23196 555.876 3.90332 555.339 3.90332 554.678C3.90332 554.015 3.23196 553.479 2.40332 553.479C1.57586 553.479 0.90332 554.015 0.90332 554.678C0.90332 555.339 1.57586 555.876 2.40332 555.876Z" fill="white"/>
<path fill-rule="evenodd" clip-rule="evenodd" d="M23.4033 555.876C24.232 555.876 24.9033 555.339 24.9033 554.678C24.9033 554.015 24.232 553.479 23.4033 553.479C22.5747 553.479 21.9033 554.015 21.9033 554.678C21.9033 555.339 22.5747 555.876 23.4033 555.876Z" fill="white"/>
<path fill-rule="evenodd" clip-rule="evenodd" d="M45.4033 555.876C46.232 555.876 46.9033 555.339 46.9033 554.678C46.9033 554.015 46.232 553.479 45.4033 553.479C44.5747 553.479 43.9033 554.015 43.9033 554.678C43.9033 555.339 44.5747 555.876 45.4033 555.876Z" fill="white"/>
<path fill-rule="evenodd" clip-rule="evenodd" d="M67.4027 555.876C68.2317 555.876 68.9033 555.339 68.9033 554.678C68.9033 554.015 68.2317 553.479 67.4027 553.479C66.5749 553.479 65.9033 554.015 65.9033 554.678C65.9033 555.339 66.5749 555.876 67.4027 555.876Z" fill="white"/>
<path fill-rule="evenodd" clip-rule="evenodd" d="M88.4033 555.876C89.2308 555.876 89.9033 555.339 89.9033 554.678C89.9033 554.015 89.2308 553.479 88.4033 553.479C87.5747 553.479 86.9033 554.015 86.9033 554.678C86.9033 555.339 87.5747 555.876 88.4033 555.876Z" fill="white"/>
<path fill-rule="evenodd" clip-rule="evenodd" d="M13.4027 572.659C14.2317 572.659 14.9033 572.121 14.9033 571.46C14.9033 570.798 14.2317 570.261 13.4027 570.261C12.5749 570.261 11.9033 570.798 11.9033 571.46C11.9033 572.121 12.5749 572.659 13.4027 572.659Z" fill="white"/>
<path fill-rule="evenodd" clip-rule="evenodd" d="M35.4033 572.659C36.2308 572.659 36.9033 572.121 36.9033 571.46C36.9033 570.798 36.2308 570.261 35.4033 570.261C34.5747 570.261 33.9033 570.798 33.9033 571.46C33.9033 572.121 34.5747 572.659 35.4033 572.659Z" fill="white"/>
<path fill-rule="evenodd" clip-rule="evenodd" d="M56.4033 572.659C57.232 572.659 57.9033 572.121 57.9033 571.46C57.9033 570.798 57.232 570.261 56.4033 570.261C55.5759 570.261 54.9033 570.798 54.9033 571.46C54.9033 572.121 55.5759 572.659 56.4033 572.659Z" fill="white"/>
<path fill-rule="evenodd" clip-rule="evenodd" d="M79.4033 572.659C80.232 572.659 80.9033 572.121 80.9033 571.46C80.9033 570.798 80.232 570.261 79.4033 570.261C78.5747 570.261 77.9033 570.798 77.9033 571.46C77.9033 572.121 78.5747 572.659 79.4033 572.659Z" fill="white"/>
<path fill-rule="evenodd" clip-rule="evenodd" d="M100.403 572.659C101.232 572.659 101.903 572.121 101.903 571.46C101.903 570.798 101.232 570.261 100.403 570.261C99.5747 570.261 98.9033 570.798 98.9033 571.46C98.9033 572.121 99.5747 572.659 100.403 572.659Z" fill="white"/>
<path fill-rule="evenodd" clip-rule="evenodd" d="M2.40332 590.24C3.23196 590.24 3.90332 589.703 3.90332 589.042C3.90332 588.379 3.23196 587.843 2.40332 587.843C1.57586 587.843 0.90332 588.379 0.90332 589.042C0.90332 589.703 1.57586 590.24 2.40332 590.24Z" fill="white"/>
<path fill-rule="evenodd" clip-rule="evenodd" d="M23.4033 590.24C24.232 590.24 24.9033 589.703 24.9033 589.042C24.9033 588.379 24.232 587.843 23.4033 587.843C22.5747 587.843 21.9033 588.379 21.9033 589.042C21.9033 589.703 22.5747 590.24 23.4033 590.24Z" fill="white"/>
<path fill-rule="evenodd" clip-rule="evenodd" d="M45.4033 590.24C46.232 590.24 46.9033 589.703 46.9033 589.042C46.9033 588.379 46.232 587.843 45.4033 587.843C44.5747 587.843 43.9033 588.379 43.9033 589.042C43.9033 589.703 44.5747 590.24 45.4033 590.24Z" fill="white"/>
<path fill-rule="evenodd" clip-rule="evenodd" d="M67.4027 590.24C68.2317 590.24 68.9033 589.703 68.9033 589.042C68.9033 588.379 68.2317 587.843 67.4027 587.843C66.5749 587.843 65.9033 588.379 65.9033 589.042C65.9033 589.703 66.5749 590.24 67.4027 590.24Z" fill="white"/>
<path fill-rule="evenodd" clip-rule="evenodd" d="M88.4033 590.24C89.2308 590.24 89.9033 589.703 89.9033 589.042C89.9033 588.379 89.2308 587.843 88.4033 587.843C87.5747 587.843 86.9033 588.379 86.9033 589.042C86.9033 589.703 87.5747 590.24 88.4033 590.24Z" fill="white"/>
<path fill-rule="evenodd" clip-rule="evenodd" d="M13.4027 607.822C14.2317 607.822 14.9033 607.285 14.9033 606.624C14.9033 605.961 14.2317 605.424 13.4027 605.424C12.5749 605.424 11.9033 605.961 11.9033 606.624C11.9033 607.285 12.5749 607.822 13.4027 607.822Z" fill="white"/>
<path fill-rule="evenodd" clip-rule="evenodd" d="M35.4033 607.822C36.2308 607.822 36.9033 607.285 36.9033 606.624C36.9033 605.961 36.2308 605.424 35.4033 605.424C34.5747 605.424 33.9033 605.961 33.9033 606.624C33.9033 607.285 34.5747 607.822 35.4033 607.822Z" fill="white"/>
<path fill-rule="evenodd" clip-rule="evenodd" d="M56.4033 607.822C57.232 607.822 57.9033 607.285 57.9033 606.624C57.9033 605.961 57.232 605.424 56.4033 605.424C55.5759 605.424 54.9033 605.961 54.9033 606.624C54.9033 607.285 55.5759 607.822 56.4033 607.822Z" fill="white"/>
<path fill-rule="evenodd" clip-rule="evenodd" d="M79.4033 607.822C80.232 607.822 80.9033 607.285 80.9033 606.624C80.9033 605.961 80.232 605.424 79.4033 605.424C78.5747 605.424 77.9033 605.961 77.9033 606.624C77.9033 607.285 78.5747 607.822 79.4033 607.822Z" fill="white"/>
<path fill-rule="evenodd" clip-rule="evenodd" d="M100.403 607.822C101.232 607.822 101.903 607.285 101.903 606.624C101.903 605.961 101.232 605.424 100.403 605.424C99.5747 605.424 98.9033 605.961 98.9033 606.624C98.9033 607.285 99.5747 607.822 100.403 607.822Z" fill="white"/>
<path fill-rule="evenodd" clip-rule="evenodd" d="M2.40332 625.403C3.23196 625.403 3.90332 624.868 3.90332 624.205C3.90332 623.543 3.23196 623.006 2.40332 623.006C1.57586 623.006 0.90332 623.543 0.90332 624.205C0.90332 624.868 1.57586 625.403 2.40332 625.403Z" fill="white"/>
<path fill-rule="evenodd" clip-rule="evenodd" d="M23.4033 625.403C24.232 625.403 24.9033 624.868 24.9033 624.205C24.9033 623.543 24.232 623.006 23.4033 623.006C22.5747 623.006 21.9033 623.543 21.9033 624.205C21.9033 624.868 22.5747 625.403 23.4033 625.403Z" fill="white"/>
<path fill-rule="evenodd" clip-rule="evenodd" d="M45.4033 625.403C46.232 625.403 46.9033 624.868 46.9033 624.205C46.9033 623.543 46.232 623.006 45.4033 623.006C44.5747 623.006 43.9033 623.543 43.9033 624.205C43.9033 624.868 44.5747 625.403 45.4033 625.403Z" fill="white"/>
<path fill-rule="evenodd" clip-rule="evenodd" d="M67.4027 625.403C68.2317 625.403 68.9033 624.868 68.9033 624.205C68.9033 623.543 68.2317 623.006 67.4027 623.006C66.5749 623.006 65.9033 623.543 65.9033 624.205C65.9033 624.868 66.5749 625.403 67.4027 625.403Z" fill="white"/>
<path fill-rule="evenodd" clip-rule="evenodd" d="M88.4033 625.403C89.2308 625.403 89.9033 624.868 89.9033 624.205C89.9033 623.543 89.2308 623.006 88.4033 623.006C87.5747 623.006 86.9033 623.543 86.9033 624.205C86.9033 624.868 87.5747 625.403 88.4033 625.403Z" fill="white"/>
<path fill-rule="evenodd" clip-rule="evenodd" d="M13.4027 642.186C14.2317 642.186 14.9033 641.65 14.9033 640.987C14.9033 640.325 14.2317 639.788 13.4027 639.788C12.5749 639.788 11.9033 640.325 11.9033 640.987C11.9033 641.65 12.5749 642.186 13.4027 642.186Z" fill="white"/>
<path fill-rule="evenodd" clip-rule="evenodd" d="M35.4033 642.186C36.2308 642.186 36.9033 641.65 36.9033 640.987C36.9033 640.325 36.2308 639.788 35.4033 639.788C34.5747 639.788 33.9033 640.325 33.9033 640.987C33.9033 641.65 34.5747 642.186 35.4033 642.186Z" fill="white"/>
<path fill-rule="evenodd" clip-rule="evenodd" d="M56.4033 642.186C57.232 642.186 57.9033 641.65 57.9033 640.987C57.9033 640.325 57.232 639.788 56.4033 639.788C55.5759 639.788 54.9033 640.325 54.9033 640.987C54.9033 641.65 55.5759 642.186 56.4033 642.186Z" fill="white"/>
<path fill-rule="evenodd" clip-rule="evenodd" d="M79.4033 642.186C80.232 642.186 80.9033 641.65 80.9033 640.987C80.9033 640.325 80.232 639.788 79.4033 639.788C78.5747 639.788 77.9033 640.325 77.9033 640.987C77.9033 641.65 78.5747 642.186 79.4033 642.186Z" fill="white"/>
<path fill-rule="evenodd" clip-rule="evenodd" d="M100.403 642.186C101.232 642.186 101.903 641.65 101.903 640.987C101.903 640.325 101.232 639.788 100.403 639.788C99.5747 639.788 98.9033 640.325 98.9033 640.987C98.9033 641.65 99.5747 642.186 100.403 642.186Z" fill="white"/>
<path fill-rule="evenodd" clip-rule="evenodd" d="M2.40332 660.566C3.23196 660.566 3.90332 660.029 3.90332 659.368C3.90332 658.705 3.23196 658.169 2.40332 658.169C1.57586 658.169 0.90332 658.705 0.90332 659.368C0.90332 660.029 1.57586 660.566 2.40332 660.566Z" fill="white"/>
<path fill-rule="evenodd" clip-rule="evenodd" d="M23.4033 660.566C24.232 660.566 24.9033 660.029 24.9033 659.368C24.9033 658.705 24.232 658.169 23.4033 658.169C22.5747 658.169 21.9033 658.705 21.9033 659.368C21.9033 660.029 22.5747 660.566 23.4033 660.566Z" fill="white"/>
<path fill-rule="evenodd" clip-rule="evenodd" d="M45.4033 660.566C46.232 660.566 46.9033 660.029 46.9033 659.368C46.9033 658.705 46.232 658.169 45.4033 658.169C44.5747 658.169 43.9033 658.705 43.9033 659.368C43.9033 660.029 44.5747 660.566 45.4033 660.566Z" fill="white"/>
<path fill-rule="evenodd" clip-rule="evenodd" d="M67.4027 660.566C68.2317 660.566 68.9033 660.029 68.9033 659.368C68.9033 658.705 68.2317 658.169 67.4027 658.169C66.5749 658.169 65.9033 658.705 65.9033 659.368C65.9033 660.029 66.5749 660.566 67.4027 660.566Z" fill="white"/>
<path fill-rule="evenodd" clip-rule="evenodd" d="M88.4033 660.566C89.2308 660.566 89.9033 660.029 89.9033 659.368C89.9033 658.705 89.2308 658.169 88.4033 658.169C87.5747 658.169 86.9033 658.705 86.9033 659.368C86.9033 660.029 87.5747 660.566 88.4033 660.566Z" fill="white"/>
<path fill-rule="evenodd" clip-rule="evenodd" d="M13.4027 677.349C14.2317 677.349 14.9033 676.811 14.9033 676.15C14.9033 675.488 14.2317 674.951 13.4027 674.951C12.5749 674.951 11.9033 675.488 11.9033 676.15C11.9033 676.811 12.5749 677.349 13.4027 677.349Z" fill="white"/>
<path fill-rule="evenodd" clip-rule="evenodd" d="M35.4033 677.349C36.2308 677.349 36.9033 676.811 36.9033 676.15C36.9033 675.488 36.2308 674.951 35.4033 674.951C34.5747 674.951 33.9033 675.488 33.9033 676.15C33.9033 676.811 34.5747 677.349 35.4033 677.349Z" fill="white"/>
<path fill-rule="evenodd" clip-rule="evenodd" d="M56.4033 677.349C57.232 677.349 57.9033 676.811 57.9033 676.15C57.9033 675.488 57.232 674.951 56.4033 674.951C55.5759 674.951 54.9033 675.488 54.9033 676.15C54.9033 676.811 55.5759 677.349 56.4033 677.349Z" fill="white"/>
<path fill-rule="evenodd" clip-rule="evenodd" d="M79.4033 677.349C80.232 677.349 80.9033 676.811 80.9033 676.15C80.9033 675.488 80.232 674.951 79.4033 674.951C78.5747 674.951 77.9033 675.488 77.9033 676.15C77.9033 676.811 78.5747 677.349 79.4033 677.349Z" fill="white"/>
<path fill-rule="evenodd" clip-rule="evenodd" d="M100.403 677.349C101.232 677.349 101.903 676.811 101.903 676.15C101.903 675.488 101.232 674.951 100.403 674.951C99.5747 674.951 98.9033 675.488 98.9033 676.15C98.9033 676.811 99.5747 677.349 100.403 677.349Z" fill="white"/>
<path fill-rule="evenodd" clip-rule="evenodd" d="M2.40332 695.73C3.23196 695.73 3.90332 695.192 3.90332 694.531C3.90332 693.869 3.23196 693.332 2.40332 693.332C1.57586 693.332 0.90332 693.869 0.90332 694.531C0.90332 695.192 1.57586 695.73 2.40332 695.73Z" fill="white"/>
<path fill-rule="evenodd" clip-rule="evenodd" d="M23.4033 695.73C24.232 695.73 24.9033 695.192 24.9033 694.531C24.9033 693.869 24.232 693.332 23.4033 693.332C22.5747 693.332 21.9033 693.869 21.9033 694.531C21.9033 695.192 22.5747 695.73 23.4033 695.73Z" fill="white"/>
<path fill-rule="evenodd" clip-rule="evenodd" d="M45.4033 695.73C46.232 695.73 46.9033 695.192 46.9033 694.531C46.9033 693.869 46.232 693.332 45.4033 693.332C44.5747 693.332 43.9033 693.869 43.9033 694.531C43.9033 695.192 44.5747 695.73 45.4033 695.73Z" fill="white"/>
<path fill-rule="evenodd" clip-rule="evenodd" d="M67.4027 695.73C68.2317 695.73 68.9033 695.192 68.9033 694.531C68.9033 693.869 68.2317 693.332 67.4027 693.332C66.5749 693.332 65.9033 693.869 65.9033 694.531C65.9033 695.192 66.5749 695.73 67.4027 695.73Z" fill="white"/>
<path fill-rule="evenodd" clip-rule="evenodd" d="M88.4033 695.73C89.2308 695.73 89.9033 695.192 89.9033 694.531C89.9033 693.869 89.2308 693.332 88.4033 693.332C87.5747 693.332 86.9033 693.869 86.9033 694.531C86.9033 695.192 87.5747 695.73 88.4033 695.73Z" fill="white"/>
<path fill-rule="evenodd" clip-rule="evenodd" d="M13.4027 712.512C14.2317 712.512 14.9033 711.976 14.9033 711.313C14.9033 710.651 14.2317 710.114 13.4027 710.114C12.5749 710.114 11.9033 710.651 11.9033 711.313C11.9033 711.976 12.5749 712.512 13.4027 712.512Z" fill="white"/>
<path fill-rule="evenodd" clip-rule="evenodd" d="M35.4033 712.512C36.2308 712.512 36.9033 711.976 36.9033 711.313C36.9033 710.651 36.2308 710.114 35.4033 710.114C34.5747 710.114 33.9033 710.651 33.9033 711.313C33.9033 711.976 34.5747 712.512 35.4033 712.512Z" fill="white"/>
<path fill-rule="evenodd" clip-rule="evenodd" d="M56.4033 712.512C57.232 712.512 57.9033 711.976 57.9033 711.313C57.9033 710.651 57.232 710.114 56.4033 710.114C55.5759 710.114 54.9033 710.651 54.9033 711.313C54.9033 711.976 55.5759 712.512 56.4033 712.512Z" fill="white"/>
<path fill-rule="evenodd" clip-rule="evenodd" d="M79.4033 712.512C80.232 712.512 80.9033 711.976 80.9033 711.313C80.9033 710.651 80.232 710.114 79.4033 710.114C78.5747 710.114 77.9033 710.651 77.9033 711.313C77.9033 711.976 78.5747 712.512 79.4033 712.512Z" fill="white"/>
<path fill-rule="evenodd" clip-rule="evenodd" d="M100.403 712.512C101.232 712.512 101.903 711.976 101.903 711.313C101.903 710.651 101.232 710.114 100.403 710.114C99.5747 710.114 98.9033 710.651 98.9033 711.313C98.9033 711.976 99.5747 712.512 100.403 712.512Z" fill="white"/>
<path fill-rule="evenodd" clip-rule="evenodd" d="M2.40332 729.294C3.23196 729.294 3.90332 728.759 3.90332 728.096C3.90332 727.434 3.23196 726.897 2.40332 726.897C1.57586 726.897 0.90332 727.434 0.90332 728.096C0.90332 728.759 1.57586 729.294 2.40332 729.294Z" fill="white"/>
<path fill-rule="evenodd" clip-rule="evenodd" d="M23.4033 729.294C24.232 729.294 24.9033 728.759 24.9033 728.096C24.9033 727.434 24.232 726.897 23.4033 726.897C22.5747 726.897 21.9033 727.434 21.9033 728.096C21.9033 728.759 22.5747 729.294 23.4033 729.294Z" fill="white"/>
<path fill-rule="evenodd" clip-rule="evenodd" d="M45.4033 729.294C46.232 729.294 46.9033 728.759 46.9033 728.096C46.9033 727.434 46.232 726.897 45.4033 726.897C44.5747 726.897 43.9033 727.434 43.9033 728.096C43.9033 728.759 44.5747 729.294 45.4033 729.294Z" fill="white"/>
<path fill-rule="evenodd" clip-rule="evenodd" d="M67.4027 729.294C68.2317 729.294 68.9033 728.759 68.9033 728.096C68.9033 727.434 68.2317 726.897 67.4027 726.897C66.5749 726.897 65.9033 727.434 65.9033 728.096C65.9033 728.759 66.5749 729.294 67.4027 729.294Z" fill="white"/>
<path fill-rule="evenodd" clip-rule="evenodd" d="M88.4033 729.294C89.2308 729.294 89.9033 728.759 89.9033 728.096C89.9033 727.434 89.2308 726.897 88.4033 726.897C87.5747 726.897 86.9033 727.434 86.9033 728.096C86.9033 728.759 87.5747 729.294 88.4033 729.294Z" fill="white"/>
<path fill-rule="evenodd" clip-rule="evenodd" d="M13.4027 747.675C14.2317 747.675 14.9033 747.137 14.9033 746.476C14.9033 745.814 14.2317 745.277 13.4027 745.277C12.5749 745.277 11.9033 745.814 11.9033 746.476C11.9033 747.137 12.5749 747.675 13.4027 747.675Z" fill="white"/>
<path fill-rule="evenodd" clip-rule="evenodd" d="M35.4033 747.675C36.2308 747.675 36.9033 747.137 36.9033 746.476C36.9033 745.814 36.2308 745.277 35.4033 745.277C34.5747 745.277 33.9033 745.814 33.9033 746.476C33.9033 747.137 34.5747 747.675 35.4033 747.675Z" fill="white"/>
<path fill-rule="evenodd" clip-rule="evenodd" d="M56.4033 747.675C57.232 747.675 57.9033 747.137 57.9033 746.476C57.9033 745.814 57.232 745.277 56.4033 745.277C55.5759 745.277 54.9033 745.814 54.9033 746.476C54.9033 747.137 55.5759 747.675 56.4033 747.675Z" fill="white"/>
<path fill-rule="evenodd" clip-rule="evenodd" d="M79.4033 747.675C80.232 747.675 80.9033 747.137 80.9033 746.476C80.9033 745.814 80.232 745.277 79.4033 745.277C78.5747 745.277 77.9033 745.814 77.9033 746.476C77.9033 747.137 78.5747 747.675 79.4033 747.675Z" fill="white"/>
<path fill-rule="evenodd" clip-rule="evenodd" d="M100.403 747.675C101.232 747.675 101.903 747.137 101.903 746.476C101.903 745.814 101.232 745.277 100.403 745.277C99.5747 745.277 98.9033 745.814 98.9033 746.476C98.9033 747.137 99.5747 747.675 100.403 747.675Z" fill="white"/>
<path fill-rule="evenodd" clip-rule="evenodd" d="M2.40332 764.458C3.23196 764.458 3.90332 763.92 3.90332 763.259C3.90332 762.597 3.23196 762.06 2.40332 762.06C1.57586 762.06 0.90332 762.597 0.90332 763.259C0.90332 763.92 1.57586 764.458 2.40332 764.458Z" fill="white"/>
<path fill-rule="evenodd" clip-rule="evenodd" d="M23.4033 764.458C24.232 764.458 24.9033 763.92 24.9033 763.259C24.9033 762.597 24.232 762.06 23.4033 762.06C22.5747 762.06 21.9033 762.597 21.9033 763.259C21.9033 763.92 22.5747 764.458 23.4033 764.458Z" fill="white"/>
<path fill-rule="evenodd" clip-rule="evenodd" d="M45.4033 764.458C46.232 764.458 46.9033 763.92 46.9033 763.259C46.9033 762.597 46.232 762.06 45.4033 762.06C44.5747 762.06 43.9033 762.597 43.9033 763.259C43.9033 763.92 44.5747 764.458 45.4033 764.458Z" fill="white"/>
<path fill-rule="evenodd" clip-rule="evenodd" d="M67.4027 764.458C68.2317 764.458 68.9033 763.92 68.9033 763.259C68.9033 762.597 68.2317 762.06 67.4027 762.06C66.5749 762.06 65.9033 762.597 65.9033 763.259C65.9033 763.92 66.5749 764.458 67.4027 764.458Z" fill="white"/>
<path fill-rule="evenodd" clip-rule="evenodd" d="M88.4033 764.458C89.2308 764.458 89.9033 763.92 89.9033 763.259C89.9033 762.597 89.2308 762.06 88.4033 762.06C87.5747 762.06 86.9033 762.597 86.9033 763.259C86.9033 763.92 87.5747 764.458 88.4033 764.458Z" fill="white"/>
</g>
</svg>
